<svg xmlns="http://www.w3.org/2000/svg" width="1024" height="1024" viewBox="0 0 1024 1024" version="1.1"><path d="M 295 342.670 C 293.625 342.888, 289.951 343.962, 286.836 345.056 C 269.761 351.051, 257.880 362.969, 252.095 379.902 L 249.500 387.500 249.213 474.333 C 248.963 550.178, 249.123 561.946, 250.480 567.333 C 255.229 586.188, 267.821 599.902, 285.984 606.002 L 292.468 608.179 508.550 608.048 C 688.635 607.938, 725.502 607.687, 729.856 606.538 C 749.383 601.387, 764.828 583.884, 768.024 563.284 C 768.730 558.731, 768.979 528.170, 768.767 471.970 C 768.472 393.650, 768.317 387.100, 766.638 382 C 762.015 367.956, 752.541 356.205, 740.312 349.347 C 726.324 341.503, 745.805 342.106, 509 342.194 C 392.675 342.237, 296.375 342.451, 295 342.670 M 292.105 353.583 C 275.944 357.928, 262.029 372.641, 259.081 388.500 C 258.565 391.276, 258.071 431.091, 257.970 478 C 257.767 572.291, 257.418 567.157, 264.809 578.574 C 270.993 588.126, 279.339 594.363, 290.045 597.433 C 295.049 598.867, 316.604 598.997, 511.066 598.761 L 726.542 598.500 733.245 595.200 C 741.162 591.303, 750.022 583.525, 753.705 577.240 C 755.154 574.768, 757.163 569.775, 758.170 566.144 C 759.876 559.992, 760 553.918, 760 476.821 C 760 420.075, 759.652 392.434, 758.890 388.799 C 755.286 371.587, 739.803 356.187, 722.876 352.976 C 719.622 352.359, 640.409 352.024, 507.614 352.066 C 327.299 352.122, 296.735 352.337, 292.105 353.583 M 380.047 374.254 C 378.148 374.887, 374.909 377.091, 372.850 379.150 C 366.111 385.889, 365.342 395.438, 370.702 405.821 C 372.979 410.230, 374.625 412.018, 378.067 413.815 C 383.735 416.776, 391.105 416.461, 395.702 413.063 C 399.960 409.914, 406.168 397.869, 406.247 392.600 C 406.433 380.318, 392.052 370.248, 380.047 374.254 M 495.127 374.500 C 490.399 375.972, 485.659 379.897, 483.411 384.200 C 481.689 387.496, 481.580 395.866, 483.189 401.236 C 484.774 406.527, 492.201 414.685, 496.518 415.877 C 503.066 417.685, 511.533 414.173, 515.660 407.938 C 523.281 396.421, 521.070 382.551, 510.663 376.603 C 505.182 373.470, 500.478 372.833, 495.127 374.500 M 555.500 373.491 C 554.950 373.675, 553.297 374.089, 551.827 374.412 C 548.114 375.228, 543.281 379.528, 540.956 384.086 C 538.206 389.477, 538.488 396.139, 541.798 403.964 C 544.880 411.248, 549.852 415.615, 556.245 416.652 C 561.521 417.508, 569.547 413.372, 573.500 407.759 C 576.073 404.107, 576.550 402.418, 576.849 395.904 C 577.364 384.698, 574.286 379.297, 564.982 375.077 C 560.799 373.180, 557.892 372.694, 555.500 373.491 M 288.459 375.880 C 273.754 382.559, 273.862 403.833, 288.637 411.106 C 293.098 413.302, 294.948 413.529, 311 413.845 C 322.064 414.062, 330.454 413.755, 333.813 413.009 C 351.845 409.003, 356.006 385.308, 340.190 376.700 C 335.236 374.003, 335.202 374, 313.865 374.022 C 295.302 374.041, 291.970 374.285, 288.459 375.880 M 435.500 375.433 C 425.892 380.119, 422.097 389.542, 425.483 400.305 C 429.990 414.635, 442.991 420.465, 453.155 412.712 C 457.327 409.531, 458.144 408.386, 461.454 401.096 C 465.201 392.846, 462.247 382.177, 454.864 377.291 C 449.890 374, 440.322 373.081, 435.500 375.433 M 606.500 375.665 C 602.091 377.995, 600.013 380.058, 597.894 384.210 C 593.123 393.558, 598.517 409.596, 608.099 414.551 C 609.640 415.348, 613.106 416, 615.800 416 C 621.495 416, 627.351 412.420, 630.773 406.846 C 632.829 403.496, 635.271 393.088, 634.550 390.745 C 634.340 390.060, 633.905 388.297, 633.584 386.827 C 632.774 383.116, 628.475 378.283, 623.914 375.956 C 619.228 373.566, 610.742 373.424, 606.500 375.665 M 663.142 376.136 C 658.344 378.536, 653.502 384.439, 652.467 389.150 C 650.810 396.694, 654.472 405, 659.456 405 C 662.481 405, 663.027 403.340, 661.339 399.282 C 659.553 394.991, 659.646 389.950, 661.561 387.217 C 665.029 382.265, 666.858 382, 697.527 382 L 726.154 382 729.026 384.872 C 734.447 390.293, 734.222 397.842, 728.490 402.874 C 725.243 405.725, 722.608 406.610, 715.500 407.236 C 713.281 407.431, 712.419 408.068, 712.189 409.682 C 711.459 414.809, 722.274 415.373, 730.368 410.630 C 740.200 404.868, 743.579 391.530, 737.417 382.807 C 731.761 374.801, 730.516 374.537, 697 374.228 C 668.407 373.964, 667.366 374.023, 663.142 376.136 M 290.110 383.396 C 286.841 385.208, 285.075 388.734, 285.050 393.500 C 285.024 398.617, 286.730 401.942, 290.502 404.126 C 293.023 405.586, 296.684 405.908, 313.500 406.147 C 331.743 406.407, 333.784 406.264, 336.734 404.510 C 344.730 399.757, 344.903 387.587, 337.033 383.517 C 333.044 381.455, 293.795 381.353, 290.110 383.396 M 378.923 384.923 C 373.412 390.435, 375.526 399.904, 382.955 402.981 C 394.394 407.720, 403.118 389.249, 392.125 383.565 C 387.225 381.031, 382.309 381.537, 378.923 384.923 M 439.388 382.980 C 435.890 384.394, 433 388.921, 433 392.989 C 433 397.175, 436.154 401.348, 440.594 403.036 C 444.991 404.707, 451.347 402.163, 453.585 397.835 C 458.219 388.875, 448.908 379.133, 439.388 382.980 M 496.500 382.945 C 487.668 386.560, 488.954 400.046, 498.358 402.429 C 506.039 404.376, 513.484 397.167, 511.378 389.821 C 509.718 384.033, 502.261 380.587, 496.500 382.945 M 552.225 384.004 C 543.021 389.616, 547.782 403, 558.981 403 C 569.989 403, 572.940 388.640, 562.989 383.494 C 559.092 381.479, 556.137 381.619, 552.225 384.004 M 609.775 383.559 C 603.982 386.703, 603.225 393.909, 608.104 399.465 C 610.792 402.527, 611.808 403, 615.704 403 C 619.484 403, 620.742 402.458, 623.600 399.600 C 627.393 395.807, 627.768 393.420, 625.365 388.357 C 622.599 382.528, 615.628 380.383, 609.775 383.559 M 673.250 406.662 C 671.300 407.449, 671.774 411.808, 673.934 412.965 C 674.998 413.534, 681.473 414, 688.323 414 C 698.938 414, 701.115 413.727, 703.056 412.156 C 707.283 408.733, 705.131 407.376, 694.342 406.662 C 683.166 405.922, 675.084 405.922, 673.250 406.662 M 290.871 430.523 C 285.238 432.308, 279.557 438.219, 278.032 443.881 C 274.565 456.757, 284.918 469.564, 298.179 468.805 C 303.357 468.508, 303.500 468.419, 303.500 465.500 C 303.500 462.553, 303.391 462.490, 297.290 461.906 C 290.372 461.244, 288.317 460.001, 286.345 455.282 C 283.435 448.321, 285.655 441.341, 291.689 438.477 C 294.489 437.149, 299.770 436.964, 327.965 437.211 L 360.964 437.500 364.107 440.645 C 367.308 443.846, 367.590 445.313, 366.768 454.500 C 366.536 457.095, 366.864 457.542, 369.193 457.811 C 371.364 458.062, 372.209 457.497, 373.554 454.895 C 377.344 447.567, 373.004 436.174, 364.749 431.776 C 360.615 429.574, 359.620 429.507, 328 429.284 C 301.719 429.099, 294.614 429.336, 290.871 430.523 M 406.637 430.465 C 401.904 432.152, 397.215 436.422, 395.377 440.718 C 392.175 448.201, 395.031 461.095, 401.131 466.702 C 404.189 469.513, 410.138 472.006, 413.718 471.978 C 418.049 471.944, 424.471 468.560, 427.337 464.802 C 431.254 459.667, 433.471 449.930, 432.029 444.201 C 430.419 437.807, 427.799 434.577, 421.797 431.586 C 416.008 428.701, 412.344 428.430, 406.637 430.465 M 463.459 430.880 C 452.618 435.804, 449.043 448.836, 455.234 460.865 C 460.180 470.477, 469.273 474.184, 478.208 470.232 C 488.349 465.746, 493.845 450.758, 489.110 440.500 C 486.736 435.356, 483.523 432.448, 478.096 430.534 C 472.420 428.531, 468.420 428.626, 463.459 430.880 M 523.637 430.465 C 511.592 434.759, 507.672 447.132, 514.250 460.095 C 517.926 467.340, 521.913 470.565, 528.397 471.537 C 536.499 472.752, 543.625 468.137, 547.757 459 C 552.216 449.142, 550.797 440.379, 543.786 434.468 C 537.334 429.028, 531.128 427.795, 523.637 430.465 M 580.204 431.128 C 574.661 433.872, 571.343 438.301, 569.945 444.822 C 566.539 460.701, 583.119 477.161, 595.875 470.565 C 598.783 469.061, 605.910 461.713, 606.125 459.997 C 606.301 458.590, 606.562 457.753, 607.452 455.729 C 607.880 454.755, 608.046 451.059, 607.820 447.516 C 607.482 442.211, 606.878 440.406, 604.397 437.287 C 598.228 429.533, 588.454 427.045, 580.204 431.128 M 637.500 431.164 C 634.666 432.728, 630.020 437.145, 628.758 439.476 C 623.558 449.078, 628.251 462.484, 638.429 467.107 C 642.172 468.807, 645.769 468.958, 683.101 468.978 C 711.600 468.993, 724.715 468.651, 727.101 467.828 C 731.998 466.139, 735.438 463.347, 737.780 459.161 C 743.580 448.799, 740.232 437.220, 729.914 431.956 C 726.280 430.102, 723.816 430.002, 682.790 430.030 C 653.154 430.051, 638.869 430.409, 637.500 431.164 M 410.827 437.783 C 406.394 438.339, 403 442.580, 403 447.565 C 403 451.065, 403.622 452.517, 406.368 455.429 C 411.018 460.359, 415.784 460.416, 420.600 455.600 C 428.426 447.774, 422.166 436.362, 410.827 437.783 M 467.388 437.980 C 464.216 439.262, 461 443.896, 461 447.185 C 461 453.347, 465.922 459, 471.288 459 C 477.624 459, 481.945 454.614, 481.978 448.150 C 481.996 444.521, 481.437 443.237, 478.600 440.400 C 475.105 436.905, 471.810 436.194, 467.388 437.980 M 526.378 438.425 C 522.175 440.270, 520 443.646, 520 448.323 C 520 453.432, 525.189 459, 529.950 459 C 536.184 459, 542 453.972, 542 448.582 C 542 440.639, 533.670 435.223, 526.378 438.425 M 585.313 438.102 C 573.566 441.501, 577.263 459, 589.728 459 C 594.878 459, 600 453.358, 600 447.685 C 600 444.443, 596.412 440.070, 592.364 438.379 C 590.549 437.620, 588.937 437.041, 588.782 437.090 C 588.627 437.140, 587.066 437.595, 585.313 438.102 M 641.212 438.129 C 633.521 440.347, 631.592 452.053, 637.880 458.343 L 641.037 461.500 681.268 461.807 C 708.712 462.017, 722.707 461.761, 725.298 461.003 C 734.690 458.253, 735.689 443.280, 726.810 438.353 C 724.004 436.796, 646.537 436.593, 641.212 438.129 M 313.163 462.878 C 312.427 463.345, 311.977 464.800, 312.163 466.113 L 312.500 468.500 330.773 468.773 C 342.241 468.944, 349.783 468.651, 351.023 467.987 C 353.392 466.720, 353.631 463.456, 351.418 462.607 C 348.987 461.674, 314.678 461.917, 313.163 462.878 M 435.235 486.524 C 428.146 490.119, 424.992 495.389, 425.022 503.588 C 425.055 512.430, 428.231 518.419, 435.482 523.313 C 442.639 528.142, 450.551 526.692, 456.977 519.374 C 461.364 514.377, 463.003 510.122, 462.984 503.782 C 462.952 493.811, 455.463 485.516, 445.494 484.409 C 441.371 483.952, 439.582 484.320, 435.235 486.524 M 492.446 486.483 C 489.638 487.893, 486.453 490.514, 485.077 492.547 C 481.925 497.206, 481.120 505.530, 483.383 510.067 C 484.273 511.849, 485 513.811, 485 514.426 C 485 516.533, 491.349 523.248, 494.643 524.624 C 501.713 527.578, 510.616 525.131, 513.167 519.534 C 513.786 518.175, 514.688 517.307, 515.171 517.606 C 515.654 517.904, 515.947 517.778, 515.823 517.324 C 515.698 516.871, 516.643 514.494, 517.924 512.043 C 520.606 506.907, 520.885 499.611, 518.569 495.133 C 515.352 488.912, 507.166 484.021, 499.946 484.006 C 498.542 484.003, 495.167 485.117, 492.446 486.483 M 550.500 485.840 C 543.303 489.273, 539 495.472, 539 502.409 C 539 507.312, 542.675 517.043, 545.771 520.340 C 557.942 533.301, 578 522.801, 578 503.468 C 578 489.966, 562.577 480.079, 550.500 485.840 M 608.704 486.145 C 601.843 488.089, 595.620 495.962, 597.361 500.498 C 598.329 503.021, 601.067 502.193, 605.616 498 L 609.955 494 623.832 494 C 637.116 494, 637.819 494.103, 640.314 496.415 C 642.999 498.904, 643.765 500.971, 644.230 506.992 C 644.547 511.091, 647.076 512.147, 650.074 509.433 C 652.429 507.302, 652.586 502.339, 650.462 497.254 C 646.696 488.242, 641.581 485.859, 625.045 485.410 C 617.980 485.218, 610.842 485.539, 608.704 486.145 M 289.001 487.110 C 277.787 491.643, 274.645 506.916, 282.696 517.759 C 287.440 524.149, 290.749 525, 310.838 525 C 325.966 525, 328.960 524.753, 330.070 523.416 C 331.022 522.268, 331.095 521.374, 330.336 520.166 C 329.440 518.744, 326.643 518.427, 311.213 518 C 294.895 517.549, 292.864 517.297, 290.319 515.410 C 286.251 512.394, 284.679 508.600, 285.447 503.656 C 285.802 501.370, 286.635 498.786, 287.297 497.913 C 290.535 493.644, 291.327 493.582, 339.500 493.813 C 364.800 493.934, 387.117 494.025, 389.094 494.016 C 391.986 494.003, 393.481 494.801, 396.746 498.098 C 399.771 501.154, 401.315 502.035, 402.810 501.560 C 407.628 500.031, 405.576 493.734, 398.796 489.246 L 394.648 486.500 343.074 486.300 C 310.179 486.172, 290.595 486.465, 289.001 487.110 M 678.500 487.569 C 670.486 491.729, 667.419 497.657, 668.294 507.300 C 668.934 514.367, 672.515 520.224, 678 523.178 C 681.189 524.896, 683.555 525.038, 704.660 524.782 L 727.819 524.500 731.660 521.442 C 739.115 515.506, 741.920 505.531, 738.462 497.254 C 736.390 492.296, 734.258 490.066, 729.500 487.881 C 726.008 486.277, 722.708 486.042, 703.500 486.028 C 685.515 486.015, 680.953 486.296, 678.500 487.569 M 437.898 494.284 C 431.439 498.625, 431.714 508.025, 438.420 512.115 C 440.114 513.147, 442.535 513.994, 443.800 513.996 C 449.286 514.005, 455 508.395, 455 503 C 455 499.410, 452.238 495.341, 448.643 493.635 C 444.029 491.445, 441.933 491.572, 437.898 494.284 M 495.984 493.867 C 491.112 496.479, 489.295 501.376, 491.362 506.325 C 494.647 514.186, 503.791 516.075, 509.250 510.019 C 514.013 504.736, 512.061 496.177, 505.466 493.421 C 501.067 491.583, 500.167 491.626, 495.984 493.867 M 553.500 493.106 C 549.893 495.189, 548.044 498.377, 548.054 502.500 C 548.065 506.896, 549.532 509.392, 553.734 512.163 C 558.979 515.621, 565.624 513.420, 568.549 507.256 C 570.450 503.249, 569.309 498.578, 565.569 495.065 C 562.815 492.477, 556.393 491.435, 553.500 493.106 M 688.852 494.043 C 684.577 494.347, 680.468 495.197, 679.536 495.970 C 673.970 500.589, 673.966 509.166, 679.526 514.726 L 682.800 518 703.150 517.996 C 721.569 517.993, 723.804 517.807, 726.701 516.040 C 733.799 511.713, 734.974 502.047, 729.046 496.750 C 727.353 495.238, 725.188 493.979, 724.234 493.954 C 709.756 493.572, 694.969 493.609, 688.852 494.043 M 599.250 510.718 C 597.500 511.346, 597.692 515.601, 599.603 518.518 C 602.853 523.477, 607.281 525.181, 618.296 525.713 C 630.192 526.287, 634.314 525.234, 633.819 521.748 C 633.514 519.600, 632.969 519.474, 621.584 518.905 C 609.856 518.320, 609.623 518.262, 606.921 515.237 C 603.742 511.680, 601.028 510.081, 599.250 510.718 M 397.648 513.092 C 394.077 518.190, 392.794 518.469, 370.500 519 C 349.854 519.492, 349.495 519.537, 349.189 521.682 C 349.001 523.007, 349.590 524.234, 350.689 524.805 C 351.768 525.366, 361.210 525.494, 374.041 525.123 C 395.085 524.514, 395.655 524.442, 398.680 522 C 402.538 518.885, 405.352 514.360, 404.619 512.448 C 403.788 510.284, 399.327 510.695, 397.648 513.092 M 292 542.700 C 286.584 544.660, 283.406 546.838, 280.884 550.319 C 278.449 553.681, 278.003 555.249, 278.016 560.400 C 278.036 567.557, 280.511 572.709, 286.088 577.199 C 293.303 583.008, 310.550 583.211, 319.048 577.587 C 323.454 574.671, 328.010 566.237, 327.978 561.054 C 327.926 552.669, 321.579 545.062, 312.980 543.081 C 308.315 542.006, 294.607 541.758, 292 542.700 M 356.459 543.880 C 349.625 546.984, 345.023 554.287, 345.006 562.054 C 344.997 565.795, 349.737 574.677, 352.970 576.979 C 357.166 579.967, 364.942 581.362, 369.922 580.021 C 375.593 578.494, 380.514 573.874, 382.416 568.292 C 384.404 562.457, 384.416 558.931, 382.462 554.254 C 380.312 549.110, 378.260 547.074, 372.500 544.368 C 366.504 541.552, 361.893 541.411, 356.459 543.880 M 412.157 543.693 C 400.896 549.241, 397.781 562.313, 405.354 572.242 C 411.797 580.689, 411.416 580.593, 441.660 581.356 C 456.422 581.729, 496.850 581.767, 531.500 581.441 C 594.105 580.852, 594.528 580.835, 599 578.615 C 613.191 571.571, 613.019 551.029, 598.711 544.102 C 595.170 542.388, 592.490 542, 584.184 542 C 574.080 542, 574 542.019, 574 544.418 C 574 549.719, 574.537 550, 584.642 550 C 595.052 550, 597.977 551.121, 600.551 556.099 C 602.536 559.937, 602.362 563.894, 600.040 567.701 C 595.993 574.340, 601.097 574, 505.418 574 C 420.255 574, 418.679 573.965, 415.474 571.984 C 411.722 569.665, 409 564.626, 409 559.999 C 409 557.694, 409.951 555.849, 412.400 553.400 L 415.800 550 490.365 550 C 564.367 550, 564.938 549.985, 566.020 547.962 C 566.620 546.841, 566.831 545.041, 566.488 543.962 C 565.876 542.035, 564.515 542, 490.683 542.023 C 422.917 542.043, 415.170 542.208, 412.157 543.693 M 638.500 543.840 C 628.024 548.837, 624.229 559.152, 629.250 568.980 C 633.607 577.508, 641.755 581.394, 651.459 579.574 C 655.810 578.757, 661.810 573.700, 663.649 569.298 C 665.648 564.512, 665.343 556.593, 662.980 551.961 C 658.705 543.581, 647.108 539.734, 638.500 543.840 M 695.500 543.490 C 693.285 544.267, 689.849 546.734, 687.801 549.018 C 681.004 556.597, 681.634 566.897, 689.367 574.630 C 694.579 579.842, 698.665 580.987, 712.072 580.994 C 725.082 581.001, 730.538 579.360, 735.401 573.978 C 745.129 563.210, 740.978 547.784, 727.101 543.138 C 722.245 541.512, 700.447 541.756, 695.500 543.490 M 289.707 552.016 C 281.115 558.774, 286.320 573.855, 297.327 574.089 C 315.051 574.466, 320.026 571.654, 319.978 561.285 C 319.937 552.434, 316.102 550, 302.201 550 C 293.758 550, 291.886 550.302, 289.707 552.016 M 358.500 551.161 C 354.837 553.175, 353.045 556.350, 353.022 560.868 C 353.003 564.622, 353.545 565.780, 356.882 569.118 C 360.158 572.393, 361.420 573, 364.959 573 C 375.162 573, 379.827 559.240, 371.889 552.560 C 368.576 549.772, 362.231 549.109, 358.500 551.161 M 639.973 551.704 C 636.086 554.383, 635.065 556.202, 635.038 560.500 C 634.995 567.434, 639.939 572.915, 646.285 572.968 C 657.685 573.064, 662.208 558.162, 652.783 551.561 C 649.837 549.497, 643.064 549.573, 639.973 551.704 M 697.270 551.483 C 688.294 555.384, 688.313 566.562, 697.304 572.044 C 699.973 573.671, 702.364 573.993, 711.800 573.996 C 723.548 574, 726.714 573.184, 730.295 569.226 C 732.715 566.553, 733.536 560.709, 732.011 557.025 C 729.673 551.383, 725.773 549.995, 712.382 550.039 C 704.459 550.065, 699.424 550.546, 697.270 551.483 M 473.501 682.066 C 468.093 683.678, 468 684.193, 468 712.469 C 468 734.460, 468.244 738.904, 469.557 740.777 C 471.049 742.908, 471.742 743, 486.241 743 C 504.387 743, 508.330 741.703, 513.113 734.160 C 517.685 726.951, 517.053 720.038, 511.255 713.817 L 508.754 711.134 510.877 707.699 C 513.860 702.872, 513.800 694.471, 510.750 689.990 C 507.623 685.396, 503.964 682.915, 498.858 681.929 C 493.192 680.834, 477.345 680.920, 473.501 682.066 M 687 681.810 C 685.620 682.223, 683.756 684.035, 682.840 685.853 C 681.377 688.757, 681.242 692.205, 681.707 714.825 C 682.113 734.552, 682.551 740.835, 683.598 741.945 C 684.587 742.993, 688.190 743.502, 696.730 743.800 C 711.346 744.311, 719.245 742.959, 723.976 739.138 C 731.852 732.776, 733.079 720.879, 726.534 714.334 L 723.248 711.048 725.624 706.354 C 728.555 700.565, 728.610 697.277, 725.875 691.458 C 724.379 688.276, 722.444 686.173, 719.336 684.351 C 715.334 682.006, 713.733 681.731, 702.211 681.413 C 695.220 681.220, 688.375 681.399, 687 681.810 M 283.895 684.365 L 281.500 685.558 281.234 712.763 C 280.978 738.894, 281.048 740.048, 282.984 741.984 C 285.507 744.507, 286.490 744.510, 289 742 C 290.732 740.268, 291 738.667, 291 730.035 C 291 721.207, 291.221 719.952, 292.934 719.035 C 295.880 717.459, 296.387 717.687, 299.558 722.017 C 304.397 728.624, 318.956 743.001, 320.792 742.985 C 323.089 742.964, 324.464 741.949, 325.906 739.211 C 327.193 736.769, 327.556 737.230, 308.743 717.431 L 303.926 712.362 314.049 702.431 C 319.616 696.969, 324.863 691.177, 325.710 689.560 C 327.164 686.780, 327.126 686.520, 325.013 684.810 C 320.776 681.378, 319.092 682.350, 306.500 695.494 C 299.900 702.383, 293.727 708.015, 292.782 708.010 C 291.273 708.001, 291.029 706.584, 290.782 696.363 C 290.521 685.575, 290.346 684.669, 288.395 683.948 C 287.165 683.495, 285.293 683.668, 283.895 684.365 M 538.885 685.115 C 536.818 687.182, 536.779 687.819, 537.165 713.727 C 537.557 740.052, 537.574 740.237, 539.890 742.112 C 542.834 744.496, 543.524 744.476, 546.061 741.939 C 547.936 740.064, 548.094 738.885, 547.811 728.937 L 547.500 717.996 561.600 717.998 L 575.700 718 576.284 729.068 C 576.612 735.275, 577.390 740.765, 578.057 741.568 C 579.763 743.624, 583.751 743.334, 584.965 741.066 C 585.604 739.872, 586 728.988, 586 712.637 C 586 689.885, 585.778 685.921, 584.429 684.571 C 582.210 682.353, 579.379 682.621, 577.557 685.223 C 576.393 686.884, 576 690.039, 576 697.723 L 576 708 562.117 708 L 548.233 708 547.760 705.523 C 547.499 704.161, 547.192 699.108, 547.076 694.295 C 546.960 689.481, 546.391 684.971, 545.810 684.271 C 544.234 682.372, 541.267 682.733, 538.885 685.115 M 611.655 684.829 C 610.252 686.380, 610 689.243, 610 703.670 C 610 727.259, 612.219 733.517, 622.784 739.728 C 626.886 742.139, 628.551 742.500, 635.574 742.500 C 642.815 742.500, 644.153 742.188, 648.547 739.474 C 651.585 737.597, 654.597 734.588, 656.474 731.556 L 659.500 726.665 659.808 706.255 C 660.136 684.535, 659.847 683, 655.434 683 C 650.690 683, 650 685.880, 650 705.688 L 650 723.930 647.005 727.342 C 643.104 731.784, 639.082 733.382, 633.407 732.742 C 630.233 732.385, 627.922 731.358, 625.801 729.364 C 620.601 724.477, 620 721.755, 620 703.104 C 620 689.018, 619.734 685.876, 618.429 684.571 C 616.341 682.484, 613.686 682.584, 611.655 684.829 M 347 686 C 345.106 687.894, 345 689.333, 345 713.045 L 345 738.091 347.455 740.545 C 349.860 742.951, 350.235 743, 366.232 743 C 383.953 743, 387 742.208, 387 737.598 C 387 732.773, 384.537 732, 369.171 732 L 355 732 355 725 L 355 718 363.429 718 C 372.553 718, 375 716.864, 375 712.629 C 375 709.454, 373.137 708.001, 369.050 707.991 C 367.098 707.987, 363.137 707.699, 360.250 707.352 L 355 706.721 355 700.317 L 355 693.912 368.858 694.598 C 382.159 695.256, 382.802 695.198, 384.858 693.142 C 387.528 690.472, 387.566 688.566, 385 686 C 383.157 684.157, 381.667 684, 366 684 C 350.333 684, 348.843 684.157, 347 686 M 408.043 686.673 C 405.969 689.309, 405.914 690.139, 406.202 714.285 C 406.575 745.489, 404.812 743, 426.546 743 C 434.974 743, 443.012 742.566, 444.407 742.035 C 447.756 740.762, 448.837 736.582, 446.488 733.986 C 444.942 732.278, 443.097 732.021, 430.619 731.777 L 416.500 731.500 416.204 724.750 L 415.909 718 423.232 718 C 431.086 718, 435 716.370, 435 713.098 C 435 709.517, 431.779 708, 424.171 708 C 416.269 708, 416.870 708.636, 416.801 700.200 C 416.782 697.835, 417.082 695.585, 417.468 695.200 C 417.853 694.815, 424.001 694.467, 431.130 694.427 C 443.094 694.359, 444.260 694.185, 446.289 692.156 C 448.344 690.101, 448.387 689.780, 446.956 687.229 L 445.425 684.500 427.803 684.227 L 410.181 683.955 408.043 686.673 M 478.667 692.667 C 477.833 693.500, 477.787 703.282, 478.607 705.418 C 479.100 706.703, 480.952 707, 488.472 707 C 499.564 707, 503 705.226, 503 699.500 C 503 693.784, 499.559 692, 488.532 692 C 483.473 692, 479.033 692.300, 478.667 692.667 M 692.667 692.667 C 691.833 693.500, 691.787 703.282, 692.607 705.418 C 693.101 706.706, 694.968 707, 702.652 707 C 711.340 707, 712.286 706.805, 714.545 704.545 C 717.722 701.368, 717.659 697.932, 714.364 694.636 C 711.897 692.170, 711.134 692, 702.530 692 C 697.472 692, 693.033 692.300, 692.667 692.667 M 479 724.500 L 479 732 490.045 732 C 500.439 732, 501.236 731.855, 503.545 729.545 C 506.782 726.309, 506.644 723.491, 503.077 719.923 C 500.215 717.061, 499.934 717, 489.577 717 L 479 717 479 724.500 M 692.206 724.250 L 692.500 731.500 704.219 731.781 C 714.876 732.037, 716.121 731.879, 717.969 730.031 C 720.978 727.022, 720.684 721.683, 717.365 719.073 C 715.049 717.251, 713.349 717, 703.321 717 L 691.912 717 692.206 724.250" stroke="none" fill="#e6f3f4" fill-rule="evenodd"/><path d="M 292.105 353.583 C 275.944 357.928, 262.029 372.641, 259.081 388.500 C 258.565 391.276, 258.071 431.091, 257.970 478 C 257.767 572.291, 257.418 567.157, 264.809 578.574 C 270.993 588.126, 279.339 594.363, 290.045 597.433 C 295.049 598.867, 316.604 598.997, 511.066 598.761 L 726.542 598.500 733.245 595.200 C 741.162 591.303, 750.022 583.525, 753.705 577.240 C 755.154 574.768, 757.163 569.775, 758.170 566.144 C 759.876 559.992, 760 553.918, 760 476.821 C 760 420.075, 759.652 392.434, 758.890 388.799 C 755.286 371.587, 739.803 356.187, 722.876 352.976 C 719.622 352.359, 640.409 352.024, 507.614 352.066 C 327.299 352.122, 296.735 352.337, 292.105 353.583 M 380.047 374.254 C 378.148 374.887, 374.909 377.091, 372.850 379.150 C 366.111 385.889, 365.342 395.438, 370.702 405.821 C 372.979 410.230, 374.625 412.018, 378.067 413.815 C 383.735 416.776, 391.105 416.461, 395.702 413.063 C 399.960 409.914, 406.168 397.869, 406.247 392.600 C 406.433 380.318, 392.052 370.248, 380.047 374.254 M 495.127 374.500 C 490.399 375.972, 485.659 379.897, 483.411 384.200 C 481.689 387.496, 481.580 395.866, 483.189 401.236 C 484.774 406.527, 492.201 414.685, 496.518 415.877 C 503.066 417.685, 511.533 414.173, 515.660 407.938 C 523.281 396.421, 521.070 382.551, 510.663 376.603 C 505.182 373.470, 500.478 372.833, 495.127 374.500 M 555.500 373.491 C 554.950 373.675, 553.297 374.089, 551.827 374.412 C 548.114 375.228, 543.281 379.528, 540.956 384.086 C 538.206 389.477, 538.488 396.139, 541.798 403.964 C 544.880 411.248, 549.852 415.615, 556.245 416.652 C 561.521 417.508, 569.547 413.372, 573.500 407.759 C 576.073 404.107, 576.550 402.418, 576.849 395.904 C 577.364 384.698, 574.286 379.297, 564.982 375.077 C 560.799 373.180, 557.892 372.694, 555.500 373.491 M 288.459 375.880 C 273.754 382.559, 273.862 403.833, 288.637 411.106 C 293.098 413.302, 294.948 413.529, 311 413.845 C 322.064 414.062, 330.454 413.755, 333.813 413.009 C 351.845 409.003, 356.006 385.308, 340.190 376.700 C 335.236 374.003, 335.202 374, 313.865 374.022 C 295.302 374.041, 291.970 374.285, 288.459 375.880 M 435.500 375.433 C 425.892 380.119, 422.097 389.542, 425.483 400.305 C 429.990 414.635, 442.991 420.465, 453.155 412.712 C 457.327 409.531, 458.144 408.386, 461.454 401.096 C 465.201 392.846, 462.247 382.177, 454.864 377.291 C 449.890 374, 440.322 373.081, 435.500 375.433 M 606.500 375.665 C 602.091 377.995, 600.013 380.058, 597.894 384.210 C 593.123 393.558, 598.517 409.596, 608.099 414.551 C 609.640 415.348, 613.106 416, 615.800 416 C 621.495 416, 627.351 412.420, 630.773 406.846 C 632.829 403.496, 635.271 393.088, 634.550 390.745 C 634.340 390.060, 633.905 388.297, 633.584 386.827 C 632.774 383.116, 628.475 378.283, 623.914 375.956 C 619.228 373.566, 610.742 373.424, 606.500 375.665 M 663.142 376.136 C 658.344 378.536, 653.502 384.439, 652.467 389.150 C 650.810 396.694, 654.472 405, 659.456 405 C 662.481 405, 663.027 403.340, 661.339 399.282 C 659.553 394.991, 659.646 389.950, 661.561 387.217 C 665.029 382.265, 666.858 382, 697.527 382 L 726.154 382 729.026 384.872 C 734.447 390.293, 734.222 397.842, 728.490 402.874 C 725.243 405.725, 722.608 406.610, 715.500 407.236 C 713.281 407.431, 712.419 408.068, 712.189 409.682 C 711.459 414.809, 722.274 415.373, 730.368 410.630 C 740.200 404.868, 743.579 391.530, 737.417 382.807 C 731.761 374.801, 730.516 374.537, 697 374.228 C 668.407 373.964, 667.366 374.023, 663.142 376.136 M 290.110 383.396 C 286.841 385.208, 285.075 388.734, 285.050 393.500 C 285.024 398.617, 286.730 401.942, 290.502 404.126 C 293.023 405.586, 296.684 405.908, 313.500 406.147 C 331.743 406.407, 333.784 406.264, 336.734 404.510 C 344.730 399.757, 344.903 387.587, 337.033 383.517 C 333.044 381.455, 293.795 381.353, 290.110 383.396 M 378.923 384.923 C 373.412 390.435, 375.526 399.904, 382.955 402.981 C 394.394 407.720, 403.118 389.249, 392.125 383.565 C 387.225 381.031, 382.309 381.537, 378.923 384.923 M 439.388 382.980 C 435.890 384.394, 433 388.921, 433 392.989 C 433 397.175, 436.154 401.348, 440.594 403.036 C 444.991 404.707, 451.347 402.163, 453.585 397.835 C 458.219 388.875, 448.908 379.133, 439.388 382.980 M 496.500 382.945 C 487.668 386.560, 488.954 400.046, 498.358 402.429 C 506.039 404.376, 513.484 397.167, 511.378 389.821 C 509.718 384.033, 502.261 380.587, 496.500 382.945 M 552.225 384.004 C 543.021 389.616, 547.782 403, 558.981 403 C 569.989 403, 572.940 388.640, 562.989 383.494 C 559.092 381.479, 556.137 381.619, 552.225 384.004 M 609.775 383.559 C 603.982 386.703, 603.225 393.909, 608.104 399.465 C 610.792 402.527, 611.808 403, 615.704 403 C 619.484 403, 620.742 402.458, 623.600 399.600 C 627.393 395.807, 627.768 393.420, 625.365 388.357 C 622.599 382.528, 615.628 380.383, 609.775 383.559 M 673.250 406.662 C 671.300 407.449, 671.774 411.808, 673.934 412.965 C 674.998 413.534, 681.473 414, 688.323 414 C 698.938 414, 701.115 413.727, 703.056 412.156 C 707.283 408.733, 705.131 407.376, 694.342 406.662 C 683.166 405.922, 675.084 405.922, 673.250 406.662 M 290.871 430.523 C 285.238 432.308, 279.557 438.219, 278.032 443.881 C 274.565 456.757, 284.918 469.564, 298.179 468.805 C 303.357 468.508, 303.500 468.419, 303.500 465.500 C 303.500 462.553, 303.391 462.490, 297.290 461.906 C 290.372 461.244, 288.317 460.001, 286.345 455.282 C 283.435 448.321, 285.655 441.341, 291.689 438.477 C 294.489 437.149, 299.770 436.964, 327.965 437.211 L 360.964 437.500 364.107 440.645 C 367.308 443.846, 367.590 445.313, 366.768 454.500 C 366.536 457.095, 366.864 457.542, 369.193 457.811 C 371.364 458.062, 372.209 457.497, 373.554 454.895 C 377.344 447.567, 373.004 436.174, 364.749 431.776 C 360.615 429.574, 359.620 429.507, 328 429.284 C 301.719 429.099, 294.614 429.336, 290.871 430.523 M 406.637 430.465 C 401.904 432.152, 397.215 436.422, 395.377 440.718 C 392.175 448.201, 395.031 461.095, 401.131 466.702 C 404.189 469.513, 410.138 472.006, 413.718 471.978 C 418.049 471.944, 424.471 468.560, 427.337 464.802 C 431.254 459.667, 433.471 449.930, 432.029 444.201 C 430.419 437.807, 427.799 434.577, 421.797 431.586 C 416.008 428.701, 412.344 428.430, 406.637 430.465 M 463.459 430.880 C 452.618 435.804, 449.043 448.836, 455.234 460.865 C 460.180 470.477, 469.273 474.184, 478.208 470.232 C 488.349 465.746, 493.845 450.758, 489.110 440.500 C 486.736 435.356, 483.523 432.448, 478.096 430.534 C 472.420 428.531, 468.420 428.626, 463.459 430.880 M 523.637 430.465 C 511.592 434.759, 507.672 447.132, 514.250 460.095 C 517.926 467.340, 521.913 470.565, 528.397 471.537 C 536.499 472.752, 543.625 468.137, 547.757 459 C 552.216 449.142, 550.797 440.379, 543.786 434.468 C 537.334 429.028, 531.128 427.795, 523.637 430.465 M 580.204 431.128 C 574.661 433.872, 571.343 438.301, 569.945 444.822 C 566.539 460.701, 583.119 477.161, 595.875 470.565 C 598.783 469.061, 605.910 461.713, 606.125 459.997 C 606.301 458.590, 606.562 457.753, 607.452 455.729 C 607.880 454.755, 608.046 451.059, 607.820 447.516 C 607.482 442.211, 606.878 440.406, 604.397 437.287 C 598.228 429.533, 588.454 427.045, 580.204 431.128 M 637.500 431.164 C 634.666 432.728, 630.020 437.145, 628.758 439.476 C 623.558 449.078, 628.251 462.484, 638.429 467.107 C 642.172 468.807, 645.769 468.958, 683.101 468.978 C 711.600 468.993, 724.715 468.651, 727.101 467.828 C 731.998 466.139, 735.438 463.347, 737.780 459.161 C 743.580 448.799, 740.232 437.220, 729.914 431.956 C 726.280 430.102, 723.816 430.002, 682.790 430.030 C 653.154 430.051, 638.869 430.409, 637.500 431.164 M 410.827 437.783 C 406.394 438.339, 403 442.580, 403 447.565 C 403 451.065, 403.622 452.517, 406.368 455.429 C 411.018 460.359, 415.784 460.416, 420.600 455.600 C 428.426 447.774, 422.166 436.362, 410.827 437.783 M 467.388 437.980 C 464.216 439.262, 461 443.896, 461 447.185 C 461 453.347, 465.922 459, 471.288 459 C 477.624 459, 481.945 454.614, 481.978 448.150 C 481.996 444.521, 481.437 443.237, 478.600 440.400 C 475.105 436.905, 471.810 436.194, 467.388 437.980 M 526.378 438.425 C 522.175 440.270, 520 443.646, 520 448.323 C 520 453.432, 525.189 459, 529.950 459 C 536.184 459, 542 453.972, 542 448.582 C 542 440.639, 533.670 435.223, 526.378 438.425 M 585.313 438.102 C 573.566 441.501, 577.263 459, 589.728 459 C 594.878 459, 600 453.358, 600 447.685 C 600 444.443, 596.412 440.070, 592.364 438.379 C 590.549 437.620, 588.937 437.041, 588.782 437.090 C 588.627 437.140, 587.066 437.595, 585.313 438.102 M 641.212 438.129 C 633.521 440.347, 631.592 452.053, 637.880 458.343 L 641.037 461.500 681.268 461.807 C 708.712 462.017, 722.707 461.761, 725.298 461.003 C 734.690 458.253, 735.689 443.280, 726.810 438.353 C 724.004 436.796, 646.537 436.593, 641.212 438.129 M 313.163 462.878 C 312.427 463.345, 311.977 464.800, 312.163 466.113 L 312.500 468.500 330.773 468.773 C 342.241 468.944, 349.783 468.651, 351.023 467.987 C 353.392 466.720, 353.631 463.456, 351.418 462.607 C 348.987 461.674, 314.678 461.917, 313.163 462.878 M 435.235 486.524 C 428.146 490.119, 424.992 495.389, 425.022 503.588 C 425.055 512.430, 428.231 518.419, 435.482 523.313 C 442.639 528.142, 450.551 526.692, 456.977 519.374 C 461.364 514.377, 463.003 510.122, 462.984 503.782 C 462.952 493.811, 455.463 485.516, 445.494 484.409 C 441.371 483.952, 439.582 484.320, 435.235 486.524 M 492.446 486.483 C 489.638 487.893, 486.453 490.514, 485.077 492.547 C 481.925 497.206, 481.120 505.530, 483.383 510.067 C 484.273 511.849, 485 513.811, 485 514.426 C 485 516.533, 491.349 523.248, 494.643 524.624 C 501.713 527.578, 510.616 525.131, 513.167 519.534 C 513.786 518.175, 514.688 517.307, 515.171 517.606 C 515.654 517.904, 515.947 517.778, 515.823 517.324 C 515.698 516.871, 516.643 514.494, 517.924 512.043 C 520.606 506.907, 520.885 499.611, 518.569 495.133 C 515.352 488.912, 507.166 484.021, 499.946 484.006 C 498.542 484.003, 495.167 485.117, 492.446 486.483 M 550.500 485.840 C 543.303 489.273, 539 495.472, 539 502.409 C 539 507.312, 542.675 517.043, 545.771 520.340 C 557.942 533.301, 578 522.801, 578 503.468 C 578 489.966, 562.577 480.079, 550.500 485.840 M 608.704 486.145 C 601.843 488.089, 595.620 495.962, 597.361 500.498 C 598.329 503.021, 601.067 502.193, 605.616 498 L 609.955 494 623.832 494 C 637.116 494, 637.819 494.103, 640.314 496.415 C 642.999 498.904, 643.765 500.971, 644.230 506.992 C 644.547 511.091, 647.076 512.147, 650.074 509.433 C 652.429 507.302, 652.586 502.339, 650.462 497.254 C 646.696 488.242, 641.581 485.859, 625.045 485.410 C 617.980 485.218, 610.842 485.539, 608.704 486.145 M 289.001 487.110 C 277.787 491.643, 274.645 506.916, 282.696 517.759 C 287.440 524.149, 290.749 525, 310.838 525 C 325.966 525, 328.960 524.753, 330.070 523.416 C 331.022 522.268, 331.095 521.374, 330.336 520.166 C 329.440 518.744, 326.643 518.427, 311.213 518 C 294.895 517.549, 292.864 517.297, 290.319 515.410 C 286.251 512.394, 284.679 508.600, 285.447 503.656 C 285.802 501.370, 286.635 498.786, 287.297 497.913 C 290.535 493.644, 291.327 493.582, 339.500 493.813 C 364.800 493.934, 387.117 494.025, 389.094 494.016 C 391.986 494.003, 393.481 494.801, 396.746 498.098 C 399.771 501.154, 401.315 502.035, 402.810 501.560 C 407.628 500.031, 405.576 493.734, 398.796 489.246 L 394.648 486.500 343.074 486.300 C 310.179 486.172, 290.595 486.465, 289.001 487.110 M 678.500 487.569 C 670.486 491.729, 667.419 497.657, 668.294 507.300 C 668.934 514.367, 672.515 520.224, 678 523.178 C 681.189 524.896, 683.555 525.038, 704.660 524.782 L 727.819 524.500 731.660 521.442 C 739.115 515.506, 741.920 505.531, 738.462 497.254 C 736.390 492.296, 734.258 490.066, 729.500 487.881 C 726.008 486.277, 722.708 486.042, 703.500 486.028 C 685.515 486.015, 680.953 486.296, 678.500 487.569 M 437.898 494.284 C 431.439 498.625, 431.714 508.025, 438.420 512.115 C 440.114 513.147, 442.535 513.994, 443.800 513.996 C 449.286 514.005, 455 508.395, 455 503 C 455 499.410, 452.238 495.341, 448.643 493.635 C 444.029 491.445, 441.933 491.572, 437.898 494.284 M 495.984 493.867 C 491.112 496.479, 489.295 501.376, 491.362 506.325 C 494.647 514.186, 503.791 516.075, 509.250 510.019 C 514.013 504.736, 512.061 496.177, 505.466 493.421 C 501.067 491.583, 500.167 491.626, 495.984 493.867 M 553.500 493.106 C 549.893 495.189, 548.044 498.377, 548.054 502.500 C 548.065 506.896, 549.532 509.392, 553.734 512.163 C 558.979 515.621, 565.624 513.420, 568.549 507.256 C 570.450 503.249, 569.309 498.578, 565.569 495.065 C 562.815 492.477, 556.393 491.435, 553.500 493.106 M 688.852 494.043 C 684.577 494.347, 680.468 495.197, 679.536 495.970 C 673.970 500.589, 673.966 509.166, 679.526 514.726 L 682.800 518 703.150 517.996 C 721.569 517.993, 723.804 517.807, 726.701 516.040 C 733.799 511.713, 734.974 502.047, 729.046 496.750 C 727.353 495.238, 725.188 493.979, 724.234 493.954 C 709.756 493.572, 694.969 493.609, 688.852 494.043 M 599.250 510.718 C 597.500 511.346, 597.692 515.601, 599.603 518.518 C 602.853 523.477, 607.281 525.181, 618.296 525.713 C 630.192 526.287, 634.314 525.234, 633.819 521.748 C 633.514 519.600, 632.969 519.474, 621.584 518.905 C 609.856 518.320, 609.623 518.262, 606.921 515.237 C 603.742 511.680, 601.028 510.081, 599.250 510.718 M 397.648 513.092 C 394.077 518.190, 392.794 518.469, 370.500 519 C 349.854 519.492, 349.495 519.537, 349.189 521.682 C 349.001 523.007, 349.590 524.234, 350.689 524.805 C 351.768 525.366, 361.210 525.494, 374.041 525.123 C 395.085 524.514, 395.655 524.442, 398.680 522 C 402.538 518.885, 405.352 514.360, 404.619 512.448 C 403.788 510.284, 399.327 510.695, 397.648 513.092 M 292 542.700 C 286.584 544.660, 283.406 546.838, 280.884 550.319 C 278.449 553.681, 278.003 555.249, 278.016 560.400 C 278.036 567.557, 280.511 572.709, 286.088 577.199 C 293.303 583.008, 310.550 583.211, 319.048 577.587 C 323.454 574.671, 328.010 566.237, 327.978 561.054 C 327.926 552.669, 321.579 545.062, 312.980 543.081 C 308.315 542.006, 294.607 541.758, 292 542.700 M 356.459 543.880 C 349.625 546.984, 345.023 554.287, 345.006 562.054 C 344.997 565.795, 349.737 574.677, 352.970 576.979 C 357.166 579.967, 364.942 581.362, 369.922 580.021 C 375.593 578.494, 380.514 573.874, 382.416 568.292 C 384.404 562.457, 384.416 558.931, 382.462 554.254 C 380.312 549.110, 378.260 547.074, 372.500 544.368 C 366.504 541.552, 361.893 541.411, 356.459 543.880 M 412.157 543.693 C 400.896 549.241, 397.781 562.313, 405.354 572.242 C 411.797 580.689, 411.416 580.593, 441.660 581.356 C 456.422 581.729, 496.850 581.767, 531.500 581.441 C 594.105 580.852, 594.528 580.835, 599 578.615 C 613.191 571.571, 613.019 551.029, 598.711 544.102 C 595.170 542.388, 592.490 542, 584.184 542 C 574.080 542, 574 542.019, 574 544.418 C 574 549.719, 574.537 550, 584.642 550 C 595.052 550, 597.977 551.121, 600.551 556.099 C 602.536 559.937, 602.362 563.894, 600.040 567.701 C 595.993 574.340, 601.097 574, 505.418 574 C 420.255 574, 418.679 573.965, 415.474 571.984 C 411.722 569.665, 409 564.626, 409 559.999 C 409 557.694, 409.951 555.849, 412.400 553.400 L 415.800 550 490.365 550 C 564.367 550, 564.938 549.985, 566.020 547.962 C 566.620 546.841, 566.831 545.041, 566.488 543.962 C 565.876 542.035, 564.515 542, 490.683 542.023 C 422.917 542.043, 415.170 542.208, 412.157 543.693 M 638.500 543.840 C 628.024 548.837, 624.229 559.152, 629.250 568.980 C 633.607 577.508, 641.755 581.394, 651.459 579.574 C 655.810 578.757, 661.810 573.700, 663.649 569.298 C 665.648 564.512, 665.343 556.593, 662.980 551.961 C 658.705 543.581, 647.108 539.734, 638.500 543.840 M 695.500 543.490 C 693.285 544.267, 689.849 546.734, 687.801 549.018 C 681.004 556.597, 681.634 566.897, 689.367 574.630 C 694.579 579.842, 698.665 580.987, 712.072 580.994 C 725.082 581.001, 730.538 579.360, 735.401 573.978 C 745.129 563.210, 740.978 547.784, 727.101 543.138 C 722.245 541.512, 700.447 541.756, 695.500 543.490 M 289.707 552.016 C 281.115 558.774, 286.320 573.855, 297.327 574.089 C 315.051 574.466, 320.026 571.654, 319.978 561.285 C 319.937 552.434, 316.102 550, 302.201 550 C 293.758 550, 291.886 550.302, 289.707 552.016 M 358.500 551.161 C 354.837 553.175, 353.045 556.350, 353.022 560.868 C 353.003 564.622, 353.545 565.780, 356.882 569.118 C 360.158 572.393, 361.420 573, 364.959 573 C 375.162 573, 379.827 559.240, 371.889 552.560 C 368.576 549.772, 362.231 549.109, 358.500 551.161 M 639.973 551.704 C 636.086 554.383, 635.065 556.202, 635.038 560.500 C 634.995 567.434, 639.939 572.915, 646.285 572.968 C 657.685 573.064, 662.208 558.162, 652.783 551.561 C 649.837 549.497, 643.064 549.573, 639.973 551.704 M 697.270 551.483 C 688.294 555.384, 688.313 566.562, 697.304 572.044 C 699.973 573.671, 702.364 573.993, 711.800 573.996 C 723.548 574, 726.714 573.184, 730.295 569.226 C 732.715 566.553, 733.536 560.709, 732.011 557.025 C 729.673 551.383, 725.773 549.995, 712.382 550.039 C 704.459 550.065, 699.424 550.546, 697.270 551.483 M 322.750 608.737 C 325.637 608.939, 330.363 608.939, 333.250 608.737 C 336.137 608.535, 333.775 608.370, 328 608.370 C 322.225 608.370, 319.863 608.535, 322.750 608.737 M 348.776 608.733 C 351.128 608.945, 354.728 608.942, 356.776 608.727 C 358.824 608.512, 356.900 608.339, 352.500 608.343 C 348.100 608.346, 346.424 608.522, 348.776 608.733 M 369.750 608.723 C 371.538 608.945, 374.462 608.945, 376.250 608.723 C 378.038 608.502, 376.575 608.320, 373 608.320 C 369.425 608.320, 367.962 608.502, 369.750 608.723 M 695.750 608.740 C 699.188 608.936, 704.813 608.936, 708.250 608.740 C 711.688 608.545, 708.875 608.385, 702 608.385 C 695.125 608.385, 692.313 608.545, 695.750 608.740 M 357.292 683.742 C 361.027 683.935, 366.877 683.934, 370.292 683.739 C 373.706 683.545, 370.650 683.387, 363.500 683.389 C 356.350 683.390, 353.556 683.550, 357.292 683.742 M 547.349 694 C 547.349 698.675, 547.522 700.587, 547.732 698.250 C 547.943 695.913, 547.943 692.087, 547.732 689.750 C 547.522 687.413, 547.349 689.325, 547.349 694 M 551.768 707.725 C 553.565 707.947, 556.265 707.943, 557.768 707.715 C 559.271 707.486, 557.800 707.304, 554.500 707.310 C 551.200 707.315, 549.971 707.502, 551.768 707.725 M 681.374 720.500 C 681.376 726.550, 681.541 728.896, 681.740 725.713 C 681.939 722.531, 681.937 717.581, 681.736 714.713 C 681.535 711.846, 681.372 714.450, 681.374 720.500 M 304 728.685 C 304 731.092, 311.916 739.678, 316.262 741.983 C 320.152 744.046, 321.203 744.229, 323.411 743.223 C 324.835 742.574, 326 741.551, 326 740.950 C 326 740.349, 325.293 740.564, 324.429 741.429 C 321.568 744.289, 319.132 743.129, 311.503 735.274 C 307.377 731.025, 304 728.060, 304 728.685 M 654.845 733.990 C 653.190 736.340, 650.071 738.797, 646.565 740.512 C 641.612 742.935, 640.114 743.205, 634.044 742.771 C 626.210 742.210, 619.913 739.152, 615.475 733.751 L 612.804 730.500 614.652 733.862 C 619.223 742.178, 628.202 746.587, 638.977 745.808 C 646.368 745.273, 652.347 741.497, 655.858 735.146 C 658.857 729.721, 658.300 729.085, 654.845 733.990 M 433 743 L 422.500 743.609 432.691 743.804 C 438.628 743.918, 443.140 743.583, 443.500 743 C 443.840 742.450, 443.979 742.088, 443.809 742.196 C 443.639 742.303, 438.775 742.665, 433 743 M 359.250 743.743 C 363.512 743.931, 370.488 743.931, 374.750 743.743 C 379.012 743.556, 375.525 743.402, 367 743.402 C 358.475 743.402, 354.988 743.556, 359.250 743.743" stroke="none" fill="#071527" fill-rule="evenodd"/></svg>